<svg width="168" height="33" viewBox="0 0 168 33" fill="none" xmlns="http://www.w3.org/2000/svg">
<path d="M15.4376 3.35766C15.7145 2.50545 16.9201 2.50546 17.197 3.35767L19.6401 10.8767C19.7639 11.2578 20.1191 11.5159 20.5198 11.5159H28.4258C29.3219 11.5159 29.6944 12.6625 28.9695 13.1892L22.5734 17.8362C22.2492 18.0718 22.1136 18.4893 22.2374 18.8704L24.6805 26.3894C24.9574 27.2416 23.982 27.9503 23.2571 27.4236L16.861 22.7766C16.5368 22.541 16.0978 22.541 15.7736 22.7766L9.37751 27.4236C8.65258 27.9503 7.67719 27.2416 7.95409 26.3894L10.3972 18.8704C10.521 18.4893 10.3853 18.0718 10.0611 17.8362L3.66507 13.1892C2.94014 12.6625 3.31271 11.5159 4.20878 11.5159H12.1147C12.5155 11.5159 12.8706 11.2578 12.9945 10.8767L15.4376 3.35766Z" fill="#FDAF3B"/>
<path d="M49.6627 3.35766C49.9396 2.50545 51.1452 2.50546 51.4221 3.35767L53.8652 10.8767C53.989 11.2578 54.3442 11.5159 54.7449 11.5159H62.6509C63.547 11.5159 63.9195 12.6625 63.1946 13.1892L56.7985 17.8362C56.4743 18.0718 56.3387 18.4893 56.4625 18.8704L58.9056 26.3894C59.1825 27.2416 58.2071 27.9503 57.4822 27.4236L51.0861 22.7766C50.7619 22.541 50.3229 22.541 49.9987 22.7766L43.6026 27.4236C42.8777 27.9503 41.9023 27.2416 42.1792 26.3894L44.6223 18.8704C44.7461 18.4893 44.6104 18.0718 44.2862 17.8362L37.8902 13.1892C37.1652 12.6625 37.5378 11.5159 38.4339 11.5159H46.3398C46.7406 11.5159 47.0957 11.2578 47.2196 10.8767L49.6627 3.35766Z" fill="#FDAF3B"/>
<path d="M82.9625 3.35766C83.2394 2.50545 84.445 2.50546 84.7219 3.35767L87.165 10.8767C87.2888 11.2578 87.644 11.5159 88.0447 11.5159H95.9507C96.8468 11.5159 97.2193 12.6625 96.4944 13.1892L90.0983 17.8362C89.7741 18.0718 89.6385 18.4893 89.7623 18.8704L92.2054 26.3894C92.4823 27.2416 91.5069 27.9503 90.782 27.4236L84.3859 22.7766C84.0617 22.541 83.6227 22.541 83.2985 22.7766L76.9024 27.4236C76.1775 27.9503 75.2021 27.2416 75.479 26.3894L77.9221 18.8704C78.0459 18.4893 77.9102 18.0718 77.586 17.8362L71.19 13.1892C70.465 12.6625 70.8376 11.5159 71.7337 11.5159H79.6397C80.0404 11.5159 80.3955 11.2578 80.5194 10.8767L82.9625 3.35766Z" fill="#FDAF3B"/>
<path d="M116.263 3.35766C116.54 2.50545 117.745 2.50546 118.022 3.35767L120.465 10.8767C120.589 11.2578 120.944 11.5159 121.345 11.5159H129.251C130.147 11.5159 130.52 12.6625 129.795 13.1892L123.399 17.8362C123.074 18.0718 122.939 18.4893 123.063 18.8704L125.506 26.3894C125.783 27.2416 124.807 27.9503 124.082 27.4236L117.686 22.7766C117.362 22.541 116.923 22.541 116.599 22.7766L110.203 27.4236C109.478 27.9503 108.502 27.2416 108.779 26.3894L111.222 18.8704C111.346 18.4893 111.211 18.0718 110.886 17.8362L104.49 13.1892C103.765 12.6625 104.138 11.5159 105.034 11.5159H112.94C113.341 11.5159 113.696 11.2578 113.82 10.8767L116.263 3.35766Z" fill="#FDAF3B"/>
<path d="M150.487 3.35766C150.764 2.50545 151.97 2.50546 152.247 3.35767L154.69 10.8767C154.814 11.2578 155.169 11.5159 155.57 11.5159H163.476C164.372 11.5159 164.744 12.6625 164.019 13.1892L157.623 17.8362C157.299 18.0718 157.163 18.4893 157.287 18.8704L159.73 26.3894C160.007 27.2416 159.032 27.9503 158.307 27.4236L151.911 22.7766C151.587 22.541 151.148 22.541 150.823 22.7766L144.427 27.4236C143.702 27.9503 142.727 27.2416 143.004 26.3894L145.447 18.8704C145.571 18.4893 145.435 18.0718 145.111 17.8362L138.715 13.1892C137.99 12.6625 138.363 11.5159 139.259 11.5159H147.165C147.565 11.5159 147.92 11.2578 148.044 10.8767L150.487 3.35766Z" fill="#A4A4A4"/>
</svg>
