<svg width="168" height="33" viewBox="0 0 168 33" fill="none" xmlns="http://www.w3.org/2000/svg">
<path d="M15.4376 3.35791C15.7145 2.5057 16.9201 2.5057 17.197 3.35791L19.6401 10.8769C19.7639 11.2581 20.1191 11.5161 20.5198 11.5161H28.4258C29.3219 11.5161 29.6944 12.6627 28.9695 13.1894L22.5734 17.8365C22.2492 18.072 22.1136 18.4895 22.2374 18.8706L24.6805 26.3897C24.9574 27.2419 23.982 27.9505 23.2571 27.4238L16.861 22.7768C16.5368 22.5413 16.0978 22.5413 15.7736 22.7768L9.37751 27.4238C8.65258 27.9505 7.67719 27.2419 7.95409 26.3897L10.3972 18.8706C10.521 18.4895 10.3853 18.072 10.0611 17.8365L3.66507 13.1894C2.94014 12.6627 3.31271 11.5161 4.20878 11.5161H12.1147C12.5155 11.5161 12.8706 11.2581 12.9945 10.8769L15.4376 3.35791Z" fill="#FDAF3B"/>
<path d="M49.6627 3.35791C49.9396 2.5057 51.1452 2.5057 51.4221 3.35791L53.8652 10.8769C53.989 11.2581 54.3442 11.5161 54.7449 11.5161H62.6509C63.547 11.5161 63.9195 12.6627 63.1946 13.1894L56.7985 17.8365C56.4743 18.072 56.3387 18.4895 56.4625 18.8706L58.9056 26.3897C59.1825 27.2419 58.2071 27.9505 57.4822 27.4238L51.0861 22.7768C50.7619 22.5413 50.3229 22.5413 49.9987 22.7768L43.6026 27.4238C42.8777 27.9505 41.9023 27.2419 42.1792 26.3897L44.6223 18.8706C44.7461 18.4895 44.6104 18.072 44.2862 17.8365L37.8902 13.1894C37.1652 12.6627 37.5378 11.5161 38.4339 11.5161H46.3398C46.7406 11.5161 47.0957 11.2581 47.2196 10.8769L49.6627 3.35791Z" fill="#FDAF3B"/>
<path d="M82.9625 3.35791C83.2394 2.5057 84.445 2.5057 84.7219 3.35791L87.165 10.8769C87.2888 11.2581 87.644 11.5161 88.0447 11.5161H95.9507C96.8468 11.5161 97.2193 12.6627 96.4944 13.1894L90.0983 17.8365C89.7741 18.072 89.6385 18.4895 89.7623 18.8706L92.2054 26.3897C92.4823 27.2419 91.5069 27.9505 90.782 27.4238L84.3859 22.7768C84.0617 22.5413 83.6227 22.5413 83.2985 22.7768L76.9024 27.4238C76.1775 27.9505 75.2021 27.2419 75.479 26.3897L77.9221 18.8706C78.0459 18.4895 77.9102 18.072 77.586 17.8365L71.19 13.1894C70.465 12.6627 70.8376 11.5161 71.7337 11.5161H79.6397C80.0404 11.5161 80.3955 11.2581 80.5194 10.8769L82.9625 3.35791Z" fill="#FDAF3B"/>
<path d="M116.263 3.35791C116.54 2.5057 117.745 2.5057 118.022 3.35791L120.465 10.8769C120.589 11.2581 120.944 11.5161 121.345 11.5161H129.251C130.147 11.5161 130.52 12.6627 129.795 13.1894L123.399 17.8365C123.074 18.072 122.939 18.4895 123.063 18.8706L125.506 26.3897C125.783 27.2419 124.807 27.9505 124.082 27.4238L117.686 22.7768C117.362 22.5413 116.923 22.5413 116.599 22.7768L110.203 27.4238C109.478 27.9505 108.502 27.2419 108.779 26.3897L111.222 18.8706C111.346 18.4895 111.211 18.072 110.886 17.8365L104.49 13.1894C103.765 12.6627 104.138 11.5161 105.034 11.5161H112.94C113.341 11.5161 113.696 11.2581 113.82 10.8769L116.263 3.35791Z" fill="#FDAF3B"/>
<path d="M150.487 3.35791C150.764 2.5057 151.97 2.5057 152.247 3.35791L154.69 10.8769C154.814 11.2581 155.169 11.5161 155.57 11.5161H163.476C164.372 11.5161 164.744 12.6627 164.019 13.1894L157.623 17.8365C157.299 18.072 157.163 18.4895 157.287 18.8706L159.73 26.3897C160.007 27.2419 159.032 27.9505 158.307 27.4238L151.911 22.7768C151.587 22.5413 151.148 22.5413 150.823 22.7768L144.427 27.4238C143.702 27.9505 142.727 27.2419 143.004 26.3897L145.447 18.8706C145.571 18.4895 145.435 18.072 145.111 17.8365L138.715 13.1894C137.99 12.6627 138.363 11.5161 139.259 11.5161H147.165C147.565 11.5161 147.92 11.2581 148.044 10.8769L150.487 3.35791Z" fill="#FDAF3B"/>
</svg>
